<svg width="41" height="41" viewBox="0 0 41 41" fill="none" xmlns="http://www.w3.org/2000/svg">
<path d="M19.25 25.4031V35.6124C19.2506 35.7009 19.2324 35.7885 19.1966 35.8695C19.1608 35.9504 19.1082 36.0228 19.0423 36.0819C18.9764 36.141 18.8988 36.1854 18.8144 36.2122C18.7301 36.239 18.641 36.2476 18.5531 36.2374C15.6648 35.8827 12.9241 34.7609 10.616 32.9886C8.30789 31.2163 6.51654 28.8582 5.42813 26.1593C5.3956 26.0773 5.38081 25.9893 5.38474 25.9011C5.38867 25.8129 5.41124 25.7266 5.45094 25.6478C5.49065 25.5689 5.5466 25.4994 5.61512 25.4438C5.68363 25.3881 5.76315 25.3476 5.84844 25.325L15.7063 22.6781C15.8324 22.645 15.9658 22.6522 16.0877 22.6987C16.2096 22.7452 16.3139 22.8287 16.3859 22.9375C16.9828 23.8009 17.8344 24.4564 18.8219 24.8125C18.9461 24.8537 19.0542 24.9329 19.131 25.0388C19.2079 25.1448 19.2495 25.2722 19.25 25.4031ZM20.5094 3.84995C20.3444 3.84871 20.1809 3.88013 20.0281 3.9424C19.8754 4.00466 19.7365 4.09654 19.6194 4.21274C19.5024 4.32893 19.4094 4.46715 19.346 4.61942C19.2826 4.77169 19.25 4.93501 19.25 5.09995V13.8499C19.2475 14.1787 19.3756 14.495 19.6062 14.7294C19.8368 14.9638 20.1509 15.0971 20.4797 15.0999C21.6602 15.0949 22.8045 15.5076 23.7099 16.2652C24.6153 17.0228 25.2234 18.0763 25.4266 19.2393C25.6298 20.4022 25.415 21.5995 24.8202 22.6192C24.2253 23.639 23.2889 24.4153 22.1766 24.8109C22.0524 24.8525 21.9444 24.932 21.8679 25.0383C21.7913 25.1445 21.7501 25.2721 21.75 25.4031V35.6124C21.7494 35.7008 21.7676 35.7883 21.8033 35.8691C21.839 35.9499 21.8915 36.0222 21.9572 36.0812C22.0229 36.1403 22.1004 36.1848 22.1845 36.2117C22.2686 36.2386 22.3575 36.2474 22.4453 36.2374C26.5633 35.7504 30.3392 33.7076 33 30.5272C35.6608 27.3468 37.0052 23.2696 36.7577 19.1303C36.5103 14.9911 34.6899 11.103 31.6692 8.26224C28.6484 5.42149 24.656 3.84298 20.5094 3.84995ZM15.5094 19.7078C15.5676 18.9694 15.789 18.2532 16.1578 17.6109V17.5999C16.2817 17.386 16.3393 17.1402 16.3235 16.8935C16.3076 16.6468 16.219 16.4103 16.0688 16.214C15.9637 16.079 15.8331 15.9659 15.6844 15.8812L8.13282 11.5156C7.99054 11.4335 7.83348 11.3803 7.67063 11.359C7.50778 11.3377 7.34232 11.3487 7.18372 11.3914C7.02511 11.434 6.87647 11.5075 6.74629 11.6077C6.6161 11.7078 6.50693 11.8326 6.42501 11.9749C4.60643 15.1246 3.89568 18.7928 4.40626 22.3937C4.4183 22.4816 4.44892 22.5659 4.49608 22.641C4.54323 22.7162 4.60584 22.7804 4.67974 22.8295C4.75364 22.8786 4.83714 22.9113 4.92469 22.9256C5.01224 22.9399 5.10183 22.9354 5.18751 22.9124L15.0656 20.2562C15.1881 20.2224 15.297 20.1515 15.3776 20.0533C15.4581 19.9551 15.5064 19.8344 15.5156 19.7078H15.5094Z" fill="#757575"/>
</svg>
