<svg width="17" height="17" viewBox="0 0 17 17" fill="none" xmlns="http://www.w3.org/2000/svg">
<path d="M7.625 11.91C7.625 12.0095 7.58549 12.1048 7.51516 12.1752C7.44484 12.2455 7.34946 12.285 7.25 12.285H5.5C5.40054 12.285 5.30516 12.2455 5.23484 12.1752C5.16451 12.1048 5.125 12.0095 5.125 11.91C5.125 11.8105 5.16451 11.7152 5.23484 11.6448C5.30516 11.5745 5.40054 11.535 5.5 11.535H7.25C7.34946 11.535 7.44484 11.5745 7.51516 11.6448C7.58549 11.7152 7.625 11.8105 7.625 11.91ZM11.5 11.535H9.75C9.65054 11.535 9.55516 11.5745 9.48483 11.6448C9.41451 11.7152 9.375 11.8105 9.375 11.91C9.375 12.0095 9.41451 12.1048 9.48483 12.1752C9.55516 12.2455 9.65054 12.285 9.75 12.285H11.5C11.5995 12.285 11.6948 12.2455 11.7652 12.1752C11.8355 12.1048 11.875 12.0095 11.875 11.91C11.875 11.8105 11.8355 11.7152 11.7652 11.6448C11.6948 11.5745 11.5995 11.535 11.5 11.535ZM15.375 14.41C15.375 14.5095 15.3355 14.6048 15.2652 14.6752C15.1948 14.7455 15.0995 14.785 15 14.785H2C1.90054 14.785 1.80516 14.7455 1.73483 14.6752C1.66451 14.6048 1.625 14.5095 1.625 14.41C1.625 14.3105 1.66451 14.2152 1.73483 14.1448C1.80516 14.0745 1.90054 14.035 2 14.035H2.625V6.41C2.625 6.34036 2.64439 6.2721 2.68101 6.21286C2.71762 6.15361 2.77001 6.10574 2.83229 6.07459C2.89458 6.04345 2.96432 6.03027 3.03368 6.03652C3.10304 6.04277 3.16929 6.06822 3.225 6.11L6.625 8.66V6.41C6.625 6.34036 6.64439 6.2721 6.68101 6.21286C6.71762 6.15361 6.77001 6.10574 6.83229 6.07459C6.89458 6.04345 6.96432 6.03027 7.03368 6.03652C7.10304 6.04277 7.16929 6.06822 7.225 6.11L9.8125 8.0525L10.5625 2.78625C10.5934 2.57835 10.6978 2.38839 10.8567 2.2508C11.0156 2.11322 11.2186 2.03711 11.4288 2.03625H12.5612C12.7714 2.03711 12.9744 2.11322 13.1333 2.2508C13.2922 2.38839 13.3966 2.57835 13.4275 2.78625L14.365 9.35688C14.365 9.35688 14.3687 9.39375 14.3687 9.41V14.035H14.9937C15.0435 14.0342 15.093 14.0433 15.1392 14.0617C15.1854 14.0802 15.2275 14.1077 15.263 14.1426C15.2985 14.1775 15.3266 14.2191 15.3459 14.265C15.3651 14.3109 15.375 14.3602 15.375 14.41ZM10.5 8.56563L11.125 9.035H13.5675L12.6875 2.8925C12.6833 2.86247 12.6682 2.835 12.6452 2.81523C12.6222 2.79545 12.5928 2.78471 12.5625 2.785H11.4338C11.4034 2.78471 11.374 2.79545 11.351 2.81523C11.328 2.835 11.313 2.86247 11.3088 2.8925L10.5 8.56563ZM3.375 14.035H13.625V9.785H11C10.9189 9.785 10.8399 9.75869 10.775 9.71L9.875 9.035L7.375 7.16V9.41C7.375 9.47965 7.35561 9.54791 7.31899 9.60715C7.28238 9.66639 7.22999 9.71427 7.16771 9.74541C7.10542 9.77656 7.03568 9.78974 6.96632 9.78349C6.89696 9.77724 6.83071 9.75179 6.775 9.71L3.375 7.16V14.035Z" fill="white"/>
</svg>
