<svg width="17" height="17" viewBox="0 0 17 17" fill="none" xmlns="http://www.w3.org/2000/svg">
<path d="M13.5 2.32999H11.875V1.70499C11.875 1.60553 11.8355 1.51015 11.7652 1.43982C11.6948 1.3695 11.5995 1.32999 11.5 1.32999C11.4005 1.32999 11.3052 1.3695 11.2348 1.43982C11.1645 1.51015 11.125 1.60553 11.125 1.70499V2.32999H5.875V1.70499C5.875 1.60553 5.83549 1.51015 5.76516 1.43982C5.69484 1.3695 5.59946 1.32999 5.5 1.32999C5.40054 1.32999 5.30516 1.3695 5.23484 1.43982C5.16451 1.51015 5.125 1.60553 5.125 1.70499V2.32999H3.5C3.26794 2.32999 3.04538 2.42217 2.88128 2.58627C2.71719 2.75036 2.625 2.97292 2.625 3.20499V13.205C2.625 13.4371 2.71719 13.6596 2.88128 13.8237C3.04538 13.9878 3.26794 14.08 3.5 14.08H13.5C13.7321 14.08 13.9546 13.9878 14.1187 13.8237C14.2828 13.6596 14.375 13.4371 14.375 13.205V3.20499C14.375 2.97292 14.2828 2.75036 14.1187 2.58627C13.9546 2.42217 13.7321 2.32999 13.5 2.32999ZM3.5 3.07999H5.125V3.70499C5.125 3.80444 5.16451 3.89983 5.23484 3.97015C5.30516 4.04048 5.40054 4.07999 5.5 4.07999C5.59946 4.07999 5.69484 4.04048 5.76516 3.97015C5.83549 3.89983 5.875 3.80444 5.875 3.70499V3.07999H11.125V3.70499C11.125 3.80444 11.1645 3.89983 11.2348 3.97015C11.3052 4.04048 11.4005 4.07999 11.5 4.07999C11.5995 4.07999 11.6948 4.04048 11.7652 3.97015C11.8355 3.89983 11.875 3.80444 11.875 3.70499V3.07999H13.5C13.5332 3.07999 13.5649 3.09316 13.5884 3.1166C13.6118 3.14004 13.625 3.17183 13.625 3.20499V5.32999H3.375V3.20499C3.375 3.17183 3.38817 3.14004 3.41161 3.1166C3.43505 3.09316 3.46685 3.07999 3.5 3.07999ZM13.5 13.33H3.5C3.46685 13.33 3.43505 13.3168 3.41161 13.2934C3.38817 13.2699 3.375 13.2381 3.375 13.205V6.07999H13.625V13.205C13.625 13.2381 13.6118 13.2699 13.5884 13.2934C13.5649 13.3168 13.5332 13.33 13.5 13.33Z" fill="white"/>
</svg>
