<svg width="41" height="41" viewBox="0 0 41 41" fill="none" xmlns="http://www.w3.org/2000/svg">
<path d="M19.25 8.85001V16.35C19.25 17.013 18.9866 17.6489 18.5178 18.1178C18.0489 18.5866 17.413 18.85 16.75 18.85H9.25C8.58696 18.85 7.95107 18.5866 7.48223 18.1178C7.01339 17.6489 6.75 17.013 6.75 16.35V8.85001C6.75 8.18696 7.01339 7.55108 7.48223 7.08224C7.95107 6.6134 8.58696 6.35001 9.25 6.35001H16.75C17.413 6.35001 18.0489 6.6134 18.5178 7.08224C18.9866 7.55108 19.25 8.18696 19.25 8.85001ZM31.75 6.35001H24.25C23.587 6.35001 22.9511 6.6134 22.4822 7.08224C22.0134 7.55108 21.75 8.18696 21.75 8.85001V16.35C21.75 17.013 22.0134 17.6489 22.4822 18.1178C22.9511 18.5866 23.587 18.85 24.25 18.85H31.75C32.413 18.85 33.0489 18.5866 33.5178 18.1178C33.9866 17.6489 34.25 17.013 34.25 16.35V8.85001C34.25 8.18696 33.9866 7.55108 33.5178 7.08224C33.0489 6.6134 32.413 6.35001 31.75 6.35001ZM16.75 21.35H9.25C8.58696 21.35 7.95107 21.6134 7.48223 22.0822C7.01339 22.5511 6.75 23.187 6.75 23.85V31.35C6.75 32.013 7.01339 32.6489 7.48223 33.1178C7.95107 33.5866 8.58696 33.85 9.25 33.85H16.75C17.413 33.85 18.0489 33.5866 18.5178 33.1178C18.9866 32.6489 19.25 32.013 19.25 31.35V23.85C19.25 23.187 18.9866 22.5511 18.5178 22.0822C18.0489 21.6134 17.413 21.35 16.75 21.35ZM31.75 21.35H24.25C23.587 21.35 22.9511 21.6134 22.4822 22.0822C22.0134 22.5511 21.75 23.187 21.75 23.85V31.35C21.75 32.013 22.0134 32.6489 22.4822 33.1178C22.9511 33.5866 23.587 33.85 24.25 33.85H31.75C32.413 33.85 33.0489 33.5866 33.5178 33.1178C33.9866 32.6489 34.25 32.013 34.25 31.35V23.85C34.25 23.187 33.9866 22.5511 33.5178 22.0822C33.0489 21.6134 32.413 21.35 31.75 21.35Z" fill="#087AA2"/>
</svg>
