<svg width="24" height="25" viewBox="0 0 24 25" fill="none" xmlns="http://www.w3.org/2000/svg">
<path d="M10.5 6.535C10.5 6.23833 10.588 5.94832 10.7528 5.70165C10.9176 5.45498 11.1519 5.26272 11.426 5.14919C11.7001 5.03565 12.0017 5.00595 12.2926 5.06383C12.5836 5.1217 12.8509 5.26457 13.0607 5.47434C13.2704 5.68412 13.4133 5.9514 13.4712 6.24237C13.5291 6.53334 13.4994 6.83494 13.3858 7.10903C13.2723 7.38312 13.08 7.61739 12.8334 7.78221C12.5867 7.94703 12.2967 8.035 12 8.035C11.6022 8.035 11.2206 7.87697 10.9393 7.59566C10.658 7.31436 10.5 6.93283 10.5 6.535ZM12 11.41C11.7033 11.41 11.4133 11.498 11.1666 11.6628C10.92 11.8276 10.7277 12.0619 10.6142 12.336C10.5006 12.6101 10.4709 12.9117 10.5288 13.2026C10.5867 13.4936 10.7296 13.7609 10.9393 13.9707C11.1491 14.1804 11.4164 14.3233 11.7074 14.3812C11.9983 14.4391 12.2999 14.4094 12.574 14.2958C12.8481 14.1823 13.0824 13.99 13.2472 13.7434C13.412 13.4967 13.5 13.2067 13.5 12.91C13.5 12.5122 13.342 12.1306 13.0607 11.8493C12.7794 11.568 12.3978 11.41 12 11.41ZM12 17.785C11.7033 17.785 11.4133 17.873 11.1666 18.0378C10.92 18.2026 10.7277 18.4369 10.6142 18.711C10.5006 18.9851 10.4709 19.2867 10.5288 19.5776C10.5867 19.8686 10.7296 20.1359 10.9393 20.3457C11.1491 20.5554 11.4164 20.6983 11.7074 20.7562C11.9983 20.8141 12.2999 20.7844 12.574 20.6708C12.8481 20.5573 13.0824 20.365 13.2472 20.1184C13.412 19.8717 13.5 19.5817 13.5 19.285C13.5 18.8872 13.342 18.5056 13.0607 18.2243C12.7794 17.943 12.3978 17.785 12 17.785Z" fill="white"/>
</svg>
