<svg width="17" height="17" viewBox="0 0 17 17" fill="none" xmlns="http://www.w3.org/2000/svg">
<path d="M1.31249 6.84071L8.31249 10.8407C8.36949 10.8736 8.43416 10.891 8.49999 10.891C8.56581 10.891 8.63048 10.8736 8.68749 10.8407L15.6875 6.84071C15.7449 6.80792 15.7926 6.76052 15.8258 6.70334C15.859 6.64615 15.8765 6.58121 15.8765 6.51509C15.8765 6.44897 15.859 6.38402 15.8258 6.32683C15.7926 6.26965 15.7449 6.22226 15.6875 6.18946L8.68749 2.18946C8.63048 2.15655 8.56581 2.13922 8.49999 2.13922C8.43416 2.13922 8.36949 2.15655 8.31249 2.18946L1.31249 6.18946C1.25507 6.22226 1.20735 6.26965 1.17416 6.32683C1.14096 6.38402 1.12348 6.44897 1.12348 6.51509C1.12348 6.58121 1.14096 6.64615 1.17416 6.70334C1.20735 6.76052 1.25507 6.80792 1.31249 6.84071ZM8.49999 2.94696L14.7444 6.51509L8.49999 10.0832L2.25561 6.51509L8.49999 2.94696ZM15.8256 8.82759C15.8501 8.87034 15.8659 8.91751 15.8721 8.96638C15.8784 9.01525 15.8749 9.06487 15.862 9.1124C15.849 9.15994 15.8269 9.20446 15.7967 9.24342C15.7665 9.28238 15.729 9.31502 15.6862 9.33946L8.68624 13.3395C8.62923 13.3724 8.56456 13.3897 8.49874 13.3897C8.43291 13.3897 8.36824 13.3724 8.31124 13.3395L1.31124 9.33946C1.22488 9.28973 1.16181 9.20774 1.1359 9.11151C1.11 9.01528 1.12338 8.9127 1.17311 8.82634C1.22284 8.73998 1.30484 8.67691 1.40107 8.651C1.4973 8.6251 1.59988 8.63848 1.68624 8.68821L8.49874 12.582L15.3112 8.68821C15.3541 8.66334 15.4015 8.64722 15.4506 8.64077C15.4997 8.63432 15.5497 8.63767 15.5975 8.65063C15.6453 8.66359 15.6901 8.6859 15.7293 8.71627C15.7684 8.74665 15.8012 8.78448 15.8256 8.82759Z" fill="#ADADAD"/>
</svg>
