<svg width="41" height="41" viewBox="0 0 41 41" fill="none" xmlns="http://www.w3.org/2000/svg">
<path d="M31.6016 9.48125C29.4189 7.28498 26.6333 5.78619 23.5979 5.17489C20.5625 4.56358 17.4139 4.86727 14.5512 6.04747C11.6886 7.22767 9.24081 9.23123 7.51817 11.8042C5.79554 14.3771 4.87561 17.4036 4.875 20.5V29.25C4.875 30.0788 5.20424 30.8737 5.79029 31.4597C6.37634 32.0458 7.1712 32.375 8 32.375H10.5C11.3288 32.375 12.1237 32.0458 12.7097 31.4597C13.2958 30.8737 13.625 30.0788 13.625 29.25V23C13.625 22.1712 13.2958 21.3763 12.7097 20.7903C12.1237 20.2042 11.3288 19.875 10.5 19.875H6.1375C6.29856 16.174 7.88218 12.6781 10.5581 10.1163C13.234 7.55456 16.7955 6.12472 20.5 6.125H20.6094C24.2978 6.14322 27.8373 7.58239 30.4918 10.1433C33.1464 12.7041 34.7118 16.1896 34.8625 19.875H30.5C29.6712 19.875 28.8763 20.2042 28.2903 20.7903C27.7042 21.3763 27.375 22.1712 27.375 23V29.25C27.375 30.0788 27.7042 30.8737 28.2903 31.4597C28.8763 32.0458 29.6712 32.375 30.5 32.375H34.875V33C34.875 33.5745 34.7618 34.1434 34.542 34.6742C34.3221 35.205 33.9998 35.6873 33.5936 36.0936C33.1873 36.4998 32.705 36.8221 32.1742 37.042C31.6434 37.2618 31.0745 37.375 30.5 37.375H21.75C21.5842 37.375 21.4253 37.4408 21.3081 37.5581C21.1908 37.6753 21.125 37.8342 21.125 38C21.125 38.1658 21.1908 38.3247 21.3081 38.4419C21.4253 38.5592 21.5842 38.625 21.75 38.625H30.5C31.9918 38.625 33.4226 38.0324 34.4775 36.9775C35.5324 35.9226 36.125 34.4918 36.125 33V20.5C36.1328 18.4561 35.7373 16.4307 34.9611 14.54C34.1849 12.6492 33.0432 10.9301 31.6016 9.48125ZM10.5 21.125C10.9973 21.125 11.4742 21.3225 11.8258 21.6742C12.1775 22.0258 12.375 22.5027 12.375 23V29.25C12.375 29.7473 12.1775 30.2242 11.8258 30.5758C11.4742 30.9275 10.9973 31.125 10.5 31.125H8C7.50272 31.125 7.02581 30.9275 6.67417 30.5758C6.32254 30.2242 6.125 29.7473 6.125 29.25V21.125H10.5ZM28.625 29.25V23C28.625 22.5027 28.8225 22.0258 29.1742 21.6742C29.5258 21.3225 30.0027 21.125 30.5 21.125H34.875V31.125H30.5C30.0027 31.125 29.5258 30.9275 29.1742 30.5758C28.8225 30.2242 28.625 29.7473 28.625 29.25Z" fill="white"/>
</svg>
