<svg width="17" height="17" viewBox="0 0 17 17" fill="none" xmlns="http://www.w3.org/2000/svg">
<path d="M8.5 4.74005C8.03027 4.74005 7.57109 4.87934 7.18052 5.14031C6.78995 5.40128 6.48554 5.7722 6.30579 6.20618C6.12603 6.64015 6.07899 7.11769 6.17063 7.57839C6.26227 8.0391 6.48847 8.46228 6.82062 8.79443C7.15277 9.12658 7.57596 9.35278 8.03666 9.44442C8.49737 9.53606 8.9749 9.48902 9.40887 9.30927C9.84285 9.12951 10.2138 8.8251 10.4747 8.43453C10.7357 8.04396 10.875 7.58478 10.875 7.11505C10.875 6.48516 10.6248 5.88107 10.1794 5.43567C9.73398 4.99027 9.12989 4.74005 8.5 4.74005ZM8.5 8.74005C8.17861 8.74005 7.86443 8.64475 7.5972 8.46619C7.32997 8.28763 7.12169 8.03384 6.9987 7.73691C6.8757 7.43998 6.84352 7.11325 6.90622 6.79803C6.96892 6.48281 7.12369 6.19326 7.35095 5.966C7.57821 5.73874 7.86776 5.58398 8.18298 5.52128C8.4982 5.45857 8.82493 5.49075 9.12186 5.61375C9.41879 5.73674 9.67258 5.94502 9.85114 6.21225C10.0297 6.47948 10.125 6.79366 10.125 7.11505C10.125 7.54603 9.9538 7.95935 9.64905 8.2641C9.3443 8.56885 8.93098 8.74005 8.5 8.74005ZM8.5 1.74005C7.07497 1.74171 5.70878 2.30853 4.70113 3.31618C3.69348 4.32383 3.12665 5.69002 3.125 7.11505C3.125 9.04693 4.02125 11.0988 5.71688 13.0488C6.4822 13.9333 7.34353 14.7298 8.285 15.4238C8.34802 15.4679 8.42308 15.4916 8.5 15.4916C8.57692 15.4916 8.65198 15.4679 8.715 15.4238C9.65647 14.7298 10.5178 13.9333 11.2831 13.0488C12.9788 11.0988 13.875 9.0488 13.875 7.11505C13.8733 5.69002 13.3065 4.32383 12.2989 3.31618C11.2912 2.30853 9.92503 1.74171 8.5 1.74005ZM8.5 14.6469C7.5625 13.9232 3.875 10.8413 3.875 7.11505C3.875 5.88842 4.36228 4.71204 5.22963 3.84468C6.09699 2.97733 7.27337 2.49005 8.5 2.49005C9.72663 2.49005 10.903 2.97733 11.7704 3.84468C12.6377 4.71204 13.125 5.88842 13.125 7.11505C13.125 10.8413 9.4375 13.9232 8.5 14.6469Z" fill="#ADADAD"/>
</svg>
