<svg width="41" height="41" viewBox="0 0 41 41" fill="none" xmlns="http://www.w3.org/2000/svg">
<path d="M36.75 15.1C36.7519 16.971 36.2871 18.8129 35.3977 20.459C34.5084 22.105 33.2225 23.5033 31.6566 24.5272C30.0907 25.5511 28.2941 26.1683 26.4295 26.3228C24.565 26.4774 22.6913 26.1646 20.9781 25.4125L12.8437 34.8219C12.825 34.8438 12.8031 34.8672 12.7828 34.8875C11.845 35.8253 10.5731 36.3522 9.24685 36.3522C7.92061 36.3522 6.6487 35.8253 5.71091 34.8875C4.77312 33.9497 4.24628 32.6778 4.24628 31.3516C4.24628 30.0254 4.77312 28.7534 5.71091 27.8157C5.73278 27.7953 5.75466 27.7735 5.7781 27.7547L15.1875 19.6219C14.3444 17.6935 14.0587 15.5674 14.3627 13.4848C14.6667 11.4023 15.5482 9.44655 16.9073 7.83955C18.2663 6.23255 20.0486 5.03858 22.0518 4.39307C24.055 3.74757 26.199 3.67636 28.2406 4.18753C28.4511 4.24028 28.6442 4.3469 28.8009 4.49691C28.9577 4.64692 29.0727 4.83515 29.1347 5.04309C29.1966 5.25103 29.2034 5.47152 29.1543 5.68286C29.1052 5.8942 29.0019 6.08913 28.8547 6.24847L23 12.6L23.8843 16.7172L28 17.6L34.3515 11.7375C34.5109 11.5903 34.7058 11.487 34.9171 11.4379C35.1285 11.3888 35.349 11.3956 35.5569 11.4575C35.7649 11.5195 35.9531 11.6345 36.1031 11.7913C36.2531 11.948 36.3597 12.1411 36.4125 12.3516C36.6368 13.2505 36.7501 14.1735 36.75 15.1Z" fill="#757575"/>
</svg>
