<svg width="41" height="41" viewBox="0 0 41 41" fill="none" xmlns="http://www.w3.org/2000/svg">
<path d="M34.6172 28.3125C33.7156 26.75 32.375 22.3953 32.375 16.75C32.375 13.6006 31.1239 10.5801 28.8969 8.35311C26.6699 6.12611 23.6494 4.875 20.5 4.875C17.3505 4.875 14.3301 6.12611 12.1031 8.35311C9.87609 10.5801 8.62498 13.6006 8.62498 16.75C8.62498 22.3953 7.28279 26.75 6.38123 28.3047C6.21493 28.5896 6.12672 28.9132 6.1255 29.2431C6.12429 29.5729 6.21011 29.8973 6.37431 30.1834C6.53851 30.4694 6.77527 30.7071 7.0607 30.8725C7.34613 31.0378 7.67012 31.1249 7.99998 31.125H14.9109C15.0669 32.4981 15.7228 33.7657 16.7537 34.6861C17.7845 35.6065 19.1181 36.1152 20.5 36.1152C21.8819 36.1152 23.2155 35.6065 24.2463 34.6861C25.2771 33.7657 25.9331 32.4981 26.089 31.125H33C33.3285 31.1238 33.651 31.0364 33.9352 30.8713C34.2193 30.7063 34.455 30.4695 34.6188 30.1846C34.7826 29.8998 34.8687 29.5769 34.8684 29.2484C34.8681 28.9198 34.7815 28.5971 34.6172 28.3125ZM20.5 34.875C19.448 34.8749 18.4313 34.4958 17.6361 33.807C16.841 33.1183 16.3206 32.1662 16.1703 31.125H24.8297C24.6794 32.1662 24.159 33.1183 23.3638 33.807C22.5686 34.4958 21.5519 34.8749 20.5 34.875ZM33.539 29.5625C33.4856 29.6579 33.4076 29.7373 33.313 29.7922C33.2185 29.8472 33.1109 29.8758 33.0015 29.875H7.99998C7.89061 29.8758 7.78305 29.8472 7.6885 29.7922C7.59395 29.7373 7.5159 29.6579 7.46248 29.5625C7.40762 29.4675 7.37874 29.3597 7.37874 29.25C7.37874 29.1403 7.40762 29.0325 7.46248 28.9375C8.62498 26.9328 9.87498 22.2687 9.87498 16.75C9.87498 13.9321 10.9944 11.2296 12.987 9.23699C14.9795 7.24442 17.6821 6.125 20.5 6.125C23.3179 6.125 26.0204 7.24442 28.013 9.23699C30.0056 11.2296 31.125 13.9321 31.125 16.75C31.125 22.2672 32.375 26.9328 33.5375 28.9375C33.5926 29.0324 33.6217 29.1401 33.622 29.2498C33.6223 29.3595 33.5937 29.4674 33.539 29.5625Z" fill="white"/>
</svg>
