<svg width="41" height="41" viewBox="0 0 41 41" fill="none" xmlns="http://www.w3.org/2000/svg">
<path d="M31.75 5.09999H26.0844C25.382 4.31363 24.5215 3.68446 23.5592 3.25368C22.5968 2.8229 21.5544 2.60022 20.5 2.60022C19.4456 2.60022 18.4032 2.8229 17.4408 3.25368C16.4785 3.68446 15.618 4.31363 14.9156 5.09999H9.25C8.58696 5.09999 7.95107 5.36339 7.48223 5.83223C7.01339 6.30107 6.75 6.93695 6.75 7.59999V33.85C6.75 34.513 7.01339 35.1489 7.48223 35.6178C7.95107 36.0866 8.58696 36.35 9.25 36.35H31.75C32.413 36.35 33.0489 36.0866 33.5178 35.6178C33.9866 35.1489 34.25 34.513 34.25 33.85V7.59999C34.25 6.93695 33.9866 6.30107 33.5178 5.83223C33.0489 5.36339 32.413 5.09999 31.75 5.09999ZM20.5 5.09999C21.8261 5.09999 23.0979 5.62678 24.0355 6.56446C24.9732 7.50214 25.5 8.77391 25.5 10.1H15.5C15.5 8.77391 16.0268 7.50214 16.9645 6.56446C17.9021 5.62678 19.1739 5.09999 20.5 5.09999ZM25.5 25.1H15.5C15.1685 25.1 14.8505 24.9683 14.6161 24.7339C14.3817 24.4995 14.25 24.1815 14.25 23.85C14.25 23.5185 14.3817 23.2005 14.6161 22.9661C14.8505 22.7317 15.1685 22.6 15.5 22.6H25.5C25.8315 22.6 26.1495 22.7317 26.3839 22.9661C26.6183 23.2005 26.75 23.5185 26.75 23.85C26.75 24.1815 26.6183 24.4995 26.3839 24.7339C26.1495 24.9683 25.8315 25.1 25.5 25.1ZM25.5 20.1H15.5C15.1685 20.1 14.8505 19.9683 14.6161 19.7339C14.3817 19.4995 14.25 19.1815 14.25 18.85C14.25 18.5185 14.3817 18.2005 14.6161 17.9661C14.8505 17.7317 15.1685 17.6 15.5 17.6H25.5C25.8315 17.6 26.1495 17.7317 26.3839 17.9661C26.6183 18.2005 26.75 18.5185 26.75 18.85C26.75 19.1815 26.6183 19.4995 26.3839 19.7339C26.1495 19.9683 25.8315 20.1 25.5 20.1Z" fill="#757575"/>
</svg>
