<svg width="25" height="25" viewBox="0 0 25 25" fill="none" xmlns="http://www.w3.org/2000/svg">
<path d="M21.8975 21.1025L17.0806 16.2856C18.4542 14.706 19.1608 12.6547 19.0515 10.5642C18.9422 8.47374 18.0255 6.50736 16.4946 5.07959C14.9638 3.65182 12.9384 2.8742 10.8453 2.91065C8.75232 2.9471 6.75521 3.79478 5.275 5.275C3.79478 6.75521 2.9471 8.75232 2.91065 10.8453C2.8742 12.9384 3.65182 14.9638 5.07959 16.4946C6.50736 18.0255 8.47374 18.9422 10.5642 19.0515C12.6547 19.1608 14.706 18.4542 16.2856 17.0806L21.1025 21.8975C21.2091 21.9969 21.3502 22.051 21.4959 22.0484C21.6416 22.0458 21.7807 21.9868 21.8837 21.8837C21.9868 21.7807 22.0458 21.6416 22.0484 21.4959C22.051 21.3502 21.9969 21.2091 21.8975 21.1025ZM4.0625 11C4.0625 9.6279 4.46938 8.2866 5.23168 7.14574C5.99399 6.00487 7.07748 5.11567 8.34514 4.59059C9.6128 4.06551 11.0077 3.92812 12.3534 4.19581C13.6992 4.46349 14.9353 5.12422 15.9056 6.09445C16.8758 7.06468 17.5365 8.30082 17.8042 9.64657C18.0719 10.9923 17.9345 12.3872 17.4094 13.6549C16.8843 14.9225 15.9951 16.006 14.8543 16.7683C13.7134 17.5306 12.3721 17.9375 11 17.9375C9.16075 17.9353 7.39747 17.2036 6.09692 15.9031C4.79637 14.6025 4.06474 12.8393 4.0625 11Z" fill="white"/>
</svg>
