<svg width="41" height="41" viewBox="0 0 41 41" fill="none" xmlns="http://www.w3.org/2000/svg">
<path d="M20.5 13.625C19.1403 13.625 17.8111 14.0282 16.6805 14.7836C15.5499 15.5391 14.6687 16.6128 14.1483 17.869C13.628 19.1253 13.4918 20.5076 13.7571 21.8412C14.0224 23.1749 14.6772 24.3999 15.6387 25.3614C16.6001 26.3228 17.8251 26.9776 19.1588 27.2429C20.4924 27.5082 21.8747 27.372 23.131 26.8517C24.3872 26.3313 25.4609 25.4501 26.2164 24.3195C26.9718 23.189 27.375 21.8597 27.375 20.5C27.3729 18.6773 26.648 16.9298 25.3591 15.6409C24.0702 14.3521 22.3227 13.6271 20.5 13.625ZM20.5 26.125C19.3875 26.125 18.3 25.7951 17.3749 25.177C16.4499 24.5589 15.7289 23.6804 15.3032 22.6526C14.8774 21.6248 14.7661 20.4938 14.9831 19.4026C15.2001 18.3115 15.7359 17.3092 16.5225 16.5225C17.3092 15.7359 18.3115 15.2001 19.4026 14.9831C20.4938 14.766 21.6248 14.8774 22.6526 15.3032C23.6804 15.7289 24.5589 16.4499 25.177 17.3749C25.7951 18.2999 26.125 19.3875 26.125 20.5C26.125 21.9918 25.5324 23.4226 24.4775 24.4775C23.4226 25.5324 21.9919 26.125 20.5 26.125ZM33.6141 21.0484C33.6276 20.6828 33.6276 20.3182 33.6141 19.9547L36.0875 16.8625C36.1489 16.7862 36.1915 16.6965 36.2118 16.6007C36.2322 16.5049 36.2298 16.4056 36.2047 16.3109C35.8345 14.9269 35.2823 13.5981 34.5625 12.3594C34.5143 12.2742 34.4468 12.2016 34.3653 12.1473C34.2839 12.093 34.1909 12.0586 34.0938 12.0469L30.1578 11.6094C29.9109 11.3422 29.6516 11.0828 29.3844 10.8359L28.9485 6.90625C28.9367 6.80911 28.9023 6.71608 28.848 6.63467C28.7937 6.55325 28.7211 6.48571 28.636 6.4375C27.3988 5.71935 26.0722 5.16771 24.6906 4.79687C24.5961 4.77161 24.4969 4.76891 24.4011 4.78899C24.3053 4.80907 24.2155 4.85138 24.1391 4.9125L21.0485 7.38594C20.6828 7.37135 20.3182 7.37135 19.9547 7.38594L16.8594 4.9125C16.7831 4.85111 16.6934 4.80852 16.5976 4.78817C16.5018 4.76781 16.4025 4.77026 16.3078 4.79531C14.9249 5.16576 13.5972 5.71797 12.3594 6.4375C12.2742 6.48571 12.2016 6.55325 12.1473 6.63467C12.0931 6.71608 12.0586 6.80911 12.0469 6.90625L11.6094 10.8422C11.3422 11.0891 11.0828 11.3484 10.836 11.6156L6.90626 12.0516C6.80912 12.0633 6.7161 12.0977 6.63468 12.152C6.55326 12.2063 6.48573 12.2789 6.43751 12.3641C5.71937 13.6012 5.16773 14.9278 4.79689 16.3094C4.77162 16.4039 4.76892 16.5031 4.78901 16.5989C4.80909 16.6947 4.85139 16.7845 4.91251 16.8609L7.38595 19.9516C7.37137 20.3172 7.37137 20.6818 7.38595 21.0453L4.91251 24.1406C4.85113 24.2169 4.80854 24.3066 4.78818 24.4024C4.76783 24.4982 4.77027 24.5975 4.79533 24.6922C5.16577 26.0751 5.71798 27.4029 6.43751 28.6406C6.48573 28.7258 6.55326 28.7984 6.63468 28.8527C6.7161 28.907 6.80912 28.9414 6.90626 28.9531L10.8422 29.3906C11.0891 29.6578 11.3485 29.9172 11.6156 30.1641L12.0531 34.1016C12.0649 34.1987 12.0993 34.2917 12.1536 34.3731C12.2079 34.4546 12.2805 34.5221 12.3656 34.5703C13.6046 35.2867 14.9327 35.8362 16.3156 36.2047C16.4102 36.2299 16.5094 36.2326 16.6052 36.2126C16.701 36.1925 16.7907 36.1502 16.8672 36.0891L19.9578 33.6156C20.3235 33.6292 20.688 33.6292 21.0516 33.6156L24.1438 36.0891C24.2546 36.178 24.3923 36.2264 24.5344 36.2266C24.5871 36.2264 24.6396 36.2196 24.6906 36.2062C26.0742 35.8354 27.4025 35.2827 28.6406 34.5625C28.7258 34.5143 28.7984 34.4467 28.8527 34.3653C28.907 34.2839 28.9414 34.1909 28.9531 34.0937L29.3906 30.1578C29.6578 29.9109 29.9172 29.6516 30.1641 29.3844L34.1016 28.9469C34.1987 28.9351 34.2917 28.9007 34.3732 28.8464C34.4546 28.7922 34.5221 28.7195 34.5703 28.6344C35.2867 27.3954 35.8362 26.0673 36.2047 24.6844C36.23 24.5898 36.2327 24.4906 36.2126 24.3948C36.1925 24.299 36.1502 24.2093 36.0891 24.1328L33.6141 21.0484ZM33.6406 27.7406L29.7859 28.1687C29.6322 28.1858 29.4902 28.2593 29.3875 28.375C29.0706 28.7325 28.7325 29.0706 28.375 29.3875C28.2593 29.4902 28.1858 29.6322 28.1688 29.7859L27.7406 33.6391C26.7683 34.1765 25.739 34.6036 24.6719 34.9125L21.6438 32.4891C21.5328 32.4007 21.395 32.3528 21.2531 32.3531H21.2156C20.739 32.3828 20.261 32.3828 19.7844 32.3531C19.6298 32.3438 19.4772 32.3923 19.3563 32.4891L16.3297 34.9109C15.2621 34.6033 14.2322 34.1772 13.2594 33.6406L12.8313 29.7859C12.8142 29.6322 12.7407 29.4902 12.625 29.3875C12.2675 29.0706 11.9294 28.7325 11.6125 28.375C11.5098 28.2593 11.3678 28.1858 11.2141 28.1687L7.36095 27.7406C6.8235 26.7683 6.39637 25.739 6.08751 24.6719L8.51095 21.6437C8.60775 21.5228 8.6562 21.3702 8.64689 21.2156C8.61876 20.739 8.61876 20.261 8.64689 19.7844C8.6562 19.6297 8.60775 19.4772 8.51095 19.3562L6.08908 16.3297C6.39668 15.2621 6.82277 14.2322 7.35939 13.2594L11.2141 12.8312C11.3678 12.8142 11.5098 12.7407 11.6125 12.625C11.9294 12.2675 12.2675 11.9294 12.625 11.6125C12.7407 11.5098 12.8142 11.3678 12.8313 11.2141L13.2594 7.36094C14.2317 6.82349 15.261 6.39636 16.3281 6.0875L19.3563 8.51094C19.4772 8.60774 19.6298 8.65618 19.7844 8.64687C20.261 8.61718 20.739 8.61718 21.2156 8.64687C21.3703 8.65618 21.5228 8.60774 21.6438 8.51094L24.6703 6.08906C25.7379 6.39666 26.7678 6.82275 27.7406 7.35937L28.1688 11.2141C28.1858 11.3678 28.2593 11.5098 28.375 11.6125C28.7325 11.9294 29.0706 12.2675 29.3875 12.625C29.4902 12.7407 29.6322 12.8142 29.7859 12.8312L33.6391 13.2594C34.1765 14.2317 34.6037 15.261 34.9125 16.3281L32.4891 19.3562C32.3923 19.4772 32.3438 19.6297 32.3531 19.7844C32.3813 20.261 32.3813 20.739 32.3531 21.2156C32.3438 21.3702 32.3923 21.5228 32.4891 21.6437L34.9109 24.6703C34.6033 25.7379 34.1773 26.7678 33.6406 27.7406Z" fill="white"/>
</svg>
