<svg width="154" height="41" viewBox="0 0 154 41" fill="none" xmlns="http://www.w3.org/2000/svg">
<g clip-path="url(#clip0_2_254)">
<path d="M95.0455 37.511C94.8995 37.437 94.7335 37.401 94.5485 37.401H93.3425V40.44H93.8115V39.272H94.5485C94.7305 39.272 94.8945 39.235 95.0385 39.163C95.1815 39.094 95.3005 38.985 95.3845 38.851C95.4695 38.715 95.5125 38.552 95.5125 38.365V38.309C95.5125 38.121 95.4705 37.959 95.3885 37.825C95.3065 37.69 95.1925 37.585 95.0455 37.511ZM95.0435 38.36C95.0435 38.511 94.9935 38.63 94.8955 38.717C94.7975 38.804 94.6655 38.847 94.5005 38.847H93.8105V37.827H94.5005C94.6655 37.827 94.7965 37.87 94.8955 37.957C94.9935 38.044 95.0435 38.164 95.0435 38.317V38.36ZM97.5335 37.339C97.1605 37.339 96.8645 37.445 96.6445 37.654C96.4245 37.863 96.3145 38.167 96.3145 38.563V39.275C96.3145 39.671 96.4245 39.975 96.6445 40.184C96.8645 40.394 97.1605 40.499 97.5335 40.499C97.9075 40.499 98.2045 40.394 98.4255 40.184C98.6465 39.975 98.7575 39.671 98.7575 39.275V38.563C98.7575 38.166 98.6465 37.863 98.4255 37.654C98.2045 37.445 97.9075 37.339 97.5335 37.339ZM98.2855 39.293C98.2855 39.536 98.2195 39.728 98.0895 39.869C97.9595 40.009 97.7745 40.079 97.5335 40.079C97.2935 40.079 97.1155 40.009 96.9825 39.869C96.8495 39.728 96.7825 39.537 96.7825 39.293V38.546C96.7825 38.303 96.8495 38.111 96.9825 37.971C97.1155 37.83 97.2985 37.76 97.5335 37.76C97.7685 37.76 97.9585 37.83 98.0895 37.971C98.2195 38.111 98.2855 38.302 98.2855 38.546V39.293ZM102.273 40.123H102.203L101.734 37.401H100.915L100.446 40.123H100.377L100.012 37.401H99.5425L99.9905 40.44H100.815L101.288 37.679H101.358L101.835 40.44H102.655L103.102 37.401H102.634L102.273 40.123ZM104.469 39.125H105.792V38.699H104.469V37.827H105.913V37.401H104V40.44H105.936V40.015H104.469V39.125ZM108.632 37.498C108.489 37.433 108.323 37.401 108.136 37.401H106.86V40.44H107.329V39.242H108.253C108.343 39.242 108.407 39.264 108.448 39.312C108.489 39.358 108.509 39.42 108.509 39.498V40.44H108.982V39.433C108.982 39.306 108.949 39.207 108.882 39.14C108.816 39.071 108.728 39.035 108.618 39.029V38.959C108.748 38.913 108.859 38.833 108.95 38.719C109.041 38.605 109.086 38.452 109.086 38.26V38.213C109.086 38.046 109.047 37.901 108.967 37.78C108.888 37.658 108.776 37.565 108.633 37.499L108.632 37.498ZM108.613 38.339C108.613 38.486 108.567 38.603 108.475 38.688C108.382 38.774 108.251 38.816 108.084 38.816H107.329V37.826H108.084C108.255 37.826 108.386 37.869 108.477 37.953C108.568 38.039 108.613 38.155 108.613 38.302V38.339ZM110.505 39.125H111.828V38.699H110.505V37.827H111.949V37.401H110.036V40.44H111.972V40.015H110.505V39.125ZM113.998 37.401H112.783V37.817H113.191V40.022H112.783V40.439H113.998C114.402 40.439 114.714 40.337 114.928 40.133C115.144 39.929 115.251 39.62 115.251 39.205V38.636C115.251 38.223 115.144 37.913 114.928 37.708C114.713 37.501 114.402 37.399 113.998 37.399V37.401ZM114.779 39.219C114.779 39.482 114.716 39.681 114.588 39.814C114.462 39.947 114.266 40.014 114.002 40.014H113.664V37.83H114.002C114.265 37.83 114.46 37.895 114.588 38.025C114.716 38.155 114.779 38.354 114.779 38.62V39.219ZM119.832 39.036C119.756 38.985 119.684 38.951 119.618 38.934V38.864C119.684 38.843 119.754 38.809 119.828 38.76C119.901 38.71 119.964 38.641 120.017 38.551C120.07 38.461 120.095 38.347 120.095 38.208V38.165C120.095 38.009 120.057 37.874 119.98 37.759C119.903 37.645 119.797 37.556 119.662 37.495C119.525 37.433 119.367 37.402 119.184 37.402H117.644V37.818H118.052V40.023H117.644V40.44H119.193C119.372 40.44 119.531 40.408 119.668 40.344C119.806 40.281 119.913 40.19 119.991 40.071C120.07 39.951 120.108 39.809 120.108 39.641V39.598C120.108 39.453 120.081 39.336 120.028 39.247C119.974 39.157 119.909 39.086 119.832 39.036ZM118.524 37.827H119.136C119.286 37.827 119.405 37.863 119.493 37.937C119.581 38.011 119.625 38.112 119.625 38.239V38.282C119.625 38.409 119.58 38.51 119.491 38.584C119.401 38.658 119.283 38.694 119.136 38.694H118.524V37.827ZM119.639 39.589C119.639 39.722 119.594 39.826 119.505 39.901C119.415 39.976 119.293 40.014 119.136 40.014H118.524V39.124H119.136C119.295 39.124 119.418 39.161 119.507 39.236C119.595 39.312 119.639 39.416 119.639 39.549V39.589ZM122.056 38.777H121.991L121.262 37.401H120.733L121.787 39.337V40.44H122.26V39.337L123.315 37.401H122.785L122.056 38.777ZM127.272 38.866C127.122 38.797 126.948 38.741 126.752 38.699L126.591 38.659C126.461 38.63 126.353 38.597 126.266 38.559C126.179 38.521 126.113 38.473 126.068 38.414C126.023 38.355 126.001 38.279 126.001 38.186C126.001 38.05 126.052 37.944 126.154 37.868C126.257 37.791 126.401 37.753 126.585 37.753C126.712 37.753 126.824 37.771 126.919 37.808C127.015 37.846 127.089 37.905 127.142 37.987C127.196 38.068 127.223 38.174 127.223 38.303V38.46H127.688V38.303C127.688 38.09 127.64 37.912 127.545 37.77C127.449 37.628 127.318 37.521 127.152 37.449C126.986 37.377 126.797 37.34 126.585 37.34C126.374 37.34 126.191 37.376 126.035 37.445C125.878 37.514 125.756 37.612 125.668 37.74C125.58 37.866 125.536 38.021 125.536 38.199C125.536 38.378 125.576 38.52 125.653 38.633C125.731 38.746 125.842 38.837 125.985 38.905C126.128 38.973 126.297 39.03 126.49 39.076L126.65 39.115C126.783 39.147 126.898 39.182 126.993 39.217C127.089 39.254 127.163 39.302 127.214 39.363C127.266 39.424 127.293 39.502 127.293 39.597C127.293 39.742 127.238 39.86 127.127 39.951C127.018 40.043 126.854 40.088 126.637 40.088C126.42 40.088 126.252 40.034 126.123 39.927C125.994 39.819 125.93 39.659 125.93 39.445V39.336H125.465V39.445C125.465 39.67 125.514 39.862 125.615 40.02C125.715 40.178 125.853 40.297 126.03 40.379C126.207 40.459 126.408 40.5 126.637 40.5C126.866 40.5 127.064 40.461 127.231 40.385C127.399 40.309 127.529 40.203 127.62 40.066C127.711 39.93 127.756 39.771 127.756 39.589C127.756 39.406 127.713 39.257 127.626 39.141C127.539 39.025 127.42 38.933 127.271 38.865L127.272 38.866ZM129.151 39.125H130.474V38.699H129.151V37.827H130.596V37.401H128.682V40.44H130.617V40.015H129.151V39.125ZM133.339 40.127H133.269L132.445 37.401H131.542V40.44H132.006V37.709H132.075L132.9 40.44H133.802V37.401H133.339V40.127ZM136.536 38.866C136.386 38.797 136.212 38.741 136.016 38.699L135.855 38.659C135.725 38.63 135.617 38.597 135.53 38.559C135.443 38.521 135.377 38.473 135.332 38.414C135.287 38.355 135.265 38.279 135.265 38.186C135.265 38.05 135.316 37.944 135.418 37.868C135.521 37.791 135.665 37.753 135.85 37.753C135.976 37.753 136.088 37.771 136.183 37.808C136.279 37.846 136.353 37.905 136.407 37.987C136.46 38.068 136.487 38.174 136.487 38.303V38.46H136.952V38.303C136.952 38.09 136.904 37.912 136.809 37.77C136.713 37.628 136.583 37.521 136.416 37.449C136.25 37.377 136.061 37.34 135.85 37.34C135.638 37.34 135.455 37.376 135.299 37.445C135.142 37.514 135.02 37.612 134.932 37.74C134.844 37.866 134.8 38.021 134.8 38.199C134.8 38.378 134.84 38.52 134.917 38.633C134.995 38.746 135.106 38.837 135.249 38.905C135.392 38.973 135.561 39.03 135.754 39.076L135.914 39.115C136.047 39.147 136.162 39.182 136.257 39.217C136.353 39.254 136.427 39.302 136.478 39.363C136.53 39.424 136.557 39.502 136.557 39.597C136.557 39.742 136.502 39.86 136.391 39.951C136.282 40.043 136.118 40.088 135.901 40.088C135.684 40.088 135.516 40.034 135.387 39.927C135.258 39.819 135.194 39.659 135.194 39.445V39.336H134.729V39.445C134.729 39.67 134.779 39.862 134.879 40.02C134.979 40.178 135.117 40.297 135.294 40.379C135.471 40.459 135.673 40.5 135.901 40.5C136.13 40.5 136.328 40.461 136.496 40.385C136.663 40.309 136.793 40.203 136.884 40.066C136.975 39.93 137.02 39.771 137.02 39.589C137.02 39.406 136.977 39.257 136.89 39.141C136.804 39.025 136.684 38.933 136.535 38.865L136.536 38.866ZM138.415 39.125H139.738V38.699H138.415V37.827H139.86V37.401H137.946V40.44H139.882V40.015H138.415V39.125ZM143.345 40.145H143.288L142.55 37.401H142.065L142.911 40.44H143.722L144.564 37.401H144.078L143.345 40.145ZM145.41 37.401H145.879V40.44H145.41V37.401ZM147.416 39.125H148.739V38.699H147.416V37.827H148.86V37.401H146.947V40.44H148.881V40.015H147.416V39.125ZM152.722 37.401L152.363 40.123H152.293L151.824 37.401H151.004L150.535 40.123H150.465L150.101 37.401H149.633L150.079 40.44H150.904L151.377 37.679H151.446L151.924 40.44H152.743L153.191 37.401H152.722ZM71.0035 19.212C70.1875 18.719 69.2315 18.435 68.2085 18.435C67.1845 18.435 66.2285 18.719 65.4125 19.212C64.9185 19.51 64.4745 19.884 64.0985 20.321C63.7215 19.884 63.2775 19.509 62.7835 19.212C61.9675 18.719 61.0115 18.435 59.9885 18.435C58.9645 18.435 58.0085 18.719 57.1925 19.212C55.6155 20.162 54.5635 21.888 54.5635 23.862V31.019H57.1925V23.862C57.1925 22.318 58.4435 21.066 59.9885 21.066C61.5325 21.066 62.7835 22.318 62.7835 23.862V31.019H65.4125V23.862C65.4125 22.318 66.6635 21.066 68.2085 21.066C69.7525 21.066 71.0035 22.318 71.0035 23.862V31.019H73.6325V23.862C73.6325 21.888 72.5805 20.162 71.0035 19.212ZM48.0875 31.018C46.5455 31.018 45.2755 30.681 44.2795 30.006C43.2845 29.33 42.6805 28.343 42.4725 27.04L45.0265 26.39C45.1395 27.001 45.3405 27.483 45.6285 27.836C45.9175 28.189 46.2745 28.438 46.7005 28.583C47.1255 28.728 47.5885 28.8 48.0865 28.8C48.8405 28.8 49.4075 28.664 49.7845 28.39C50.1625 28.117 50.3515 27.771 50.3515 27.353C50.3515 26.934 50.1715 26.598 49.8095 26.389C49.4475 26.18 48.8975 26.003 48.1595 25.858L47.4125 25.738C46.5935 25.578 45.8465 25.357 45.1715 25.075C44.4965 24.793 43.9545 24.408 43.5445 23.917C43.1345 23.428 42.9295 22.805 42.9295 22.049C42.9295 20.892 43.3595 20 44.2185 19.374C45.0785 18.747 46.2065 18.433 47.6045 18.433C49.0025 18.433 50.0385 18.731 50.9055 19.325C51.7725 19.92 52.3345 20.716 52.5925 21.712L50.0385 22.483C49.9095 21.808 49.6285 21.33 49.1945 21.049C48.7615 20.767 48.2315 20.627 47.6045 20.627C46.9775 20.627 46.4675 20.739 46.1225 20.964C45.7765 21.189 45.6045 21.51 45.6045 21.928C45.6045 22.346 45.7805 22.659 46.1345 22.868C46.4875 23.078 46.9615 23.23 47.5565 23.327L48.3025 23.472C49.1865 23.633 49.9855 23.841 50.7005 24.099C51.4155 24.356 51.9815 24.726 52.3995 25.208C52.8165 25.69 53.0255 26.34 53.0255 27.161C53.0255 28.398 52.5805 29.351 51.6885 30.017C50.7965 30.684 49.5975 31.018 48.0875 31.018ZM79.8825 31.018C79.0465 31.018 78.2915 30.869 77.6175 30.572C76.9425 30.275 76.4075 29.846 76.0145 29.283C75.6215 28.721 75.4245 28.029 75.4245 27.21C75.4245 26.391 75.6215 25.732 76.0145 25.185C76.4085 24.639 76.9505 24.225 77.6415 23.944C78.3315 23.663 79.1195 23.522 80.0025 23.522H83.4485V22.799C83.4485 22.172 83.2555 21.662 82.8695 21.268C82.4845 20.874 81.8815 20.677 81.0625 20.677C80.2435 20.677 79.6535 20.866 79.2435 21.244C78.8335 21.622 78.5645 22.108 78.4365 22.702L75.8825 21.858C76.0765 21.231 76.3855 20.661 76.8105 20.147C77.2345 19.633 77.8015 19.219 78.5085 18.906C79.2155 18.592 80.0835 18.435 81.1115 18.435C82.6695 18.435 83.8935 18.825 84.7855 19.605C85.6775 20.384 86.1225 21.513 86.1225 22.992V27.668C86.1225 28.15 86.3465 28.392 86.7975 28.392H87.8095V30.682H85.8575C85.2785 30.682 84.8045 30.537 84.4355 30.248C84.0665 29.959 83.8815 29.565 83.8815 29.067V29.019H83.4715C83.3755 29.244 83.2065 29.517 82.9655 29.838C82.7235 30.16 82.3595 30.437 81.8685 30.67C81.3785 30.903 80.7165 31.02 79.8815 31.02L79.8825 31.018ZM80.3405 28.753C81.2555 28.753 82.0025 28.492 82.5815 27.969C83.1595 27.447 83.4485 26.744 83.4485 25.859V25.618H80.1715C79.5765 25.618 79.0945 25.747 78.7255 26.003C78.3565 26.261 78.1715 26.638 78.1715 27.136C78.1715 27.634 78.3645 28.008 78.7505 28.305C79.1355 28.602 79.6655 28.751 80.3405 28.751V28.753ZM89.6025 31.018V19.11H92.3245V20.484H92.7345C92.9115 19.986 93.2085 19.624 93.6265 19.4C94.0445 19.175 94.5425 19.062 95.1205 19.062H96.5655V21.521H95.0725C94.2685 21.521 93.6185 21.735 93.1205 22.16C92.6225 22.586 92.3735 23.241 92.3735 24.124V31.019L89.6025 31.018ZM103.313 31.018C102.541 31.018 101.928 30.789 101.469 30.331C101.011 29.872 100.783 29.25 100.783 28.463V21.4H97.6745V19.11H100.783V15.277H103.553V19.11H106.974V21.4H103.553V28.004C103.553 28.486 103.778 28.728 104.228 28.728H106.614V31.018H103.313ZM121.087 31.018C119.545 31.018 118.275 30.681 117.279 30.006C116.284 29.33 115.681 28.343 115.472 27.04L118.026 26.39C118.139 27.001 118.34 27.483 118.628 27.836C118.917 28.189 119.274 28.438 119.7 28.583C120.125 28.728 120.588 28.8 121.086 28.8C121.84 28.8 122.407 28.664 122.785 28.39C123.162 28.117 123.351 27.771 123.351 27.353C123.351 26.934 123.171 26.598 122.809 26.389C122.448 26.18 121.897 26.003 121.159 25.858L120.412 25.738C119.593 25.578 118.846 25.357 118.171 25.075C117.496 24.793 116.954 24.408 116.544 23.917C116.134 23.428 115.93 22.805 115.93 22.049C115.93 20.892 116.359 20 117.218 19.374C118.078 18.747 119.206 18.433 120.604 18.433C122.002 18.433 123.038 18.731 123.905 19.325C124.772 19.92 125.334 20.716 125.592 21.712L123.038 22.483C122.909 21.808 122.628 21.33 122.194 21.049C121.761 20.767 121.231 20.627 120.604 20.627C119.977 20.627 119.468 20.739 119.122 20.964C118.776 21.189 118.604 21.51 118.604 21.928C118.604 22.346 118.78 22.659 119.134 22.868C119.487 23.078 119.961 23.23 120.556 23.327L121.303 23.472C122.186 23.633 122.985 23.841 123.7 24.099C124.415 24.356 124.981 24.726 125.399 25.208C125.816 25.69 126.025 26.34 126.025 27.161C126.025 28.398 125.58 29.351 124.688 30.017C123.796 30.684 122.597 31.018 121.087 31.018ZM136.865 31.018C136.093 31.018 135.479 30.789 135.021 30.331C134.563 29.872 134.334 29.25 134.334 28.463V21.4H131.227V19.11H134.334V15.277H137.105V19.11H140.526V21.4H137.105V28.004C137.105 28.486 137.329 28.728 137.78 28.728H140.166V31.018H136.865ZM128.627 17.375C128.12 17.375 127.684 17.207 127.316 16.872C126.949 16.537 126.766 16.093 126.766 15.538C126.766 14.983 126.949 14.537 127.316 14.203C127.683 13.868 128.12 13.701 128.627 13.701C129.165 13.701 129.609 13.868 129.96 14.203C130.311 14.538 130.487 14.984 130.487 15.538C130.487 16.092 130.311 16.538 129.96 16.872C129.609 17.207 129.165 17.375 128.627 17.375ZM127.23 31.018V18.918H130.046V31.018H127.23ZM147.389 31.018C146.18 31.018 145.116 30.76 144.194 30.246C143.271 29.732 142.553 29.005 142.039 28.066C141.525 27.127 141.268 26.029 141.268 24.771V24.477C141.268 23.203 141.521 22.101 142.026 21.17C142.532 20.239 143.242 19.517 144.156 19.002C145.071 18.488 146.123 18.23 147.315 18.23C148.506 18.23 149.518 18.488 150.4 19.002C151.281 19.517 151.967 20.239 152.457 21.17C152.946 22.101 153.191 23.187 153.191 24.427V25.431H144.107C144.139 26.378 144.474 27.138 145.11 27.709C145.747 28.281 146.53 28.567 147.461 28.567C148.391 28.567 149.052 28.367 149.493 27.967C149.934 27.566 150.268 27.113 150.496 26.608L152.822 27.808C152.593 28.249 152.263 28.718 151.83 29.217C151.398 29.715 150.823 30.139 150.104 30.49C149.385 30.841 148.479 31.017 147.387 31.017L147.389 31.018ZM144.132 23.303H150.326C150.26 22.503 149.954 21.867 149.407 21.392C148.86 20.919 148.154 20.681 147.289 20.681C146.424 20.681 145.673 20.919 145.134 21.392C144.595 21.866 144.261 22.503 144.131 23.303H144.132Z" fill="white"/>
<path d="M34.9675 13.035C34.2135 12.471 33.2625 12.299 32.3575 12.565L25.5475 14.569C25.4845 14.588 25.4265 14.577 25.3735 14.538C25.3215 14.499 25.2945 14.446 25.2945 14.381V13.098C25.2945 12.155 24.8625 11.291 24.1075 10.726C23.3535 10.161 22.4025 9.99 21.4985 10.255L13.5785 12.58C12.8455 12.795 12.4255 13.564 12.6415 14.296C12.8565 15.028 13.6245 15.449 14.3565 15.233L22.2765 12.908C22.3395 12.889 22.3985 12.899 22.4505 12.939C22.5035 12.978 22.5305 13.031 22.5305 13.096V14.379C22.5305 15.322 22.9625 16.187 23.7185 16.752C24.4725 17.317 25.4245 17.489 26.3275 17.222L33.1375 15.218C33.2015 15.2 33.2595 15.209 33.3115 15.249C33.3645 15.289 33.3915 15.341 33.3915 15.407V28.055C33.3915 28.164 33.3035 28.252 33.1935 28.252H3.77151C3.66151 28.252 3.57351 28.164 3.57351 28.055V10.994C3.57351 10.906 3.63051 10.83 3.71451 10.805L22.0225 5.281C22.5175 5.746 23.1805 6.032 23.9125 6.032C25.4395 6.032 26.6765 4.794 26.6765 3.267C26.6765 1.739 25.4385 0.5 23.9115 0.5C22.6025 0.5 21.5085 1.41 21.2225 2.632L2.91651 8.157C1.65651 8.538 0.809509 9.678 0.809509 10.994V28.056C0.809509 29.69 2.13851 31.019 3.77151 31.019H33.1925C34.8255 31.019 36.1545 29.69 36.1545 28.056V15.408C36.1545 14.465 35.7225 13.6 34.9675 13.035Z" fill="#00A5CF"/>
</g>
<defs>
<clipPath id="clip0_2_254">
<rect width="153" height="40" fill="white" transform="translate(0.5 0.5)"/>
</clipPath>
</defs>
</svg>
