<svg width="24" height="25" viewBox="0 0 24 25" fill="none" xmlns="http://www.w3.org/2000/svg">
<path d="M22.2 18.5434L14.0016 4.30563C13.7967 3.95681 13.5042 3.66758 13.1531 3.46662C12.802 3.26566 12.4045 3.15994 12 3.15994C11.5955 3.15994 11.198 3.26566 10.8469 3.46662C10.4958 3.66758 10.2033 3.95681 9.99844 4.30563L1.8 18.5434C1.60288 18.8808 1.49899 19.2646 1.49899 19.6553C1.49899 20.0461 1.60288 20.4298 1.8 20.7672C2.00225 21.1181 2.29422 21.4089 2.64596 21.6098C2.9977 21.8106 3.39655 21.9142 3.80156 21.91H20.1984C20.6031 21.9139 21.0016 21.8101 21.353 21.6093C21.7044 21.4085 21.996 21.1178 22.1981 20.7672C22.3955 20.43 22.4997 20.0463 22.5001 19.6556C22.5004 19.2648 22.3968 18.881 22.2 18.5434ZM11.25 10.66C11.25 10.4611 11.329 10.2703 11.4697 10.1297C11.6103 9.98902 11.8011 9.91 12 9.91C12.1989 9.91 12.3897 9.98902 12.5303 10.1297C12.671 10.2703 12.75 10.4611 12.75 10.66V14.41C12.75 14.6089 12.671 14.7997 12.5303 14.9403C12.3897 15.081 12.1989 15.16 12 15.16C11.8011 15.16 11.6103 15.081 11.4697 14.9403C11.329 14.7997 11.25 14.6089 11.25 14.41V10.66ZM12 18.91C11.7775 18.91 11.56 18.844 11.375 18.7204C11.19 18.5968 11.0458 18.4211 10.9606 18.2155C10.8755 18.01 10.8532 17.7838 10.8966 17.5655C10.94 17.3473 11.0472 17.1468 11.2045 16.9895C11.3618 16.8322 11.5623 16.725 11.7805 16.6816C11.9988 16.6382 12.2249 16.6605 12.4305 16.7456C12.6361 16.8308 12.8118 16.975 12.9354 17.16C13.059 17.345 13.125 17.5625 13.125 17.785C13.125 18.0834 13.0065 18.3695 12.7955 18.5805C12.5845 18.7915 12.2984 18.91 12 18.91Z" fill="#E0BB00"/>
</svg>
